<?xml version="1.0" encoding="utf-8"?>
<!-- Generator: Adobe Illustrator 19.1.0, SVG Export Plug-In . SVG Version: 6.00 Build 0)  -->
<svg version="1.1" id="Layer_1" xmlns="http://www.w3.org/2000/svg" xmlns:xlink="http://www.w3.org/1999/xlink" x="0px" y="0px"
	 width="50px" height="50px" viewBox="0 0 50 50" style="enable-background:new 0 0 50 50;" xml:space="preserve">
<style type="text/css">
	.st0{enable-background:new    ;}
</style>
<path d="M37.5,10.3H12.5c-1.2,0-2.3,1-2.3,2.3v24.9c0,1.2,1,2.3,2.3,2.3h24.9c1.2,0,2.3-1,2.3-2.3V12.5
	C39.7,11.3,38.7,10.3,37.5,10.3z M38.1,11.9l0,3.6H11.9v-3.6H38.1z M11.9,38.1V17h26.3l0,21.2H11.9z"/>
<rect x="15.4" y="22" class="st0" width="3" height="2.4"/>
<rect x="20.8" y="22" class="st0" width="3" height="2.4"/>
<rect x="15.4" y="26.8" class="st0" width="3" height="2.4"/>
<rect x="20.8" y="26.8" class="st0" width="3" height="2.4"/>
<rect x="15.4" y="31.6" class="st0" width="3" height="2.4"/>
<rect x="20.8" y="31.6" class="st0" width="3" height="2.4"/>
<rect x="26.2" y="31.6" class="st0" width="3" height="2.4"/>
<rect x="31.6" y="31.6" class="st0" width="3" height="2.4"/>
<polygon points="34.8,22.8 33.1,21.1 28.5,25.7 27,24.2 25.4,25.9 28.5,29.1 "/>
</svg>
