<?xml version="1.0" encoding="utf-8"?>
<!-- Generator: Adobe Illustrator 19.1.0, SVG Export Plug-In . SVG Version: 6.00 Build 0)  -->
<svg version="1.1" id="Layer_1" xmlns="http://www.w3.org/2000/svg" xmlns:xlink="http://www.w3.org/1999/xlink" x="0px" y="0px"
	 width="50px" height="50px" viewBox="0 0 50 50" style="enable-background:new 0 0 50 50;" xml:space="preserve">
<path d="M46.6,26.9c0-0.3-0.1-0.6-0.4-0.7c-1.5-0.7-3.4-1.2-5.3-1.3l-0.6,0l0.1-0.6c0.5-3.3,0.1-6.5-1.2-9.3
	c-0.1-0.3-0.4-0.4-0.7-0.4c-2.2,0.2-4.5,0.9-6.6,2.2l-0.5,0.3l-0.2-0.5c-1.3-3.1-3.3-5.6-5.8-7.3c-0.2-0.2-0.6-0.2-0.8,0
	c-2.5,1.7-4.5,4.2-5.8,7.3l-0.2,0.5l-0.5-0.3c-2.1-1.2-4.4-2-6.6-2.2c-0.3,0-0.6,0.1-0.7,0.4C9.5,17.8,9,21,9.6,24.3l0.1,0.6l-0.6,0
	c-1.9,0.1-3.7,0.5-5.3,1.3c-0.3,0.1-0.4,0.4-0.4,0.7c0.4,4.6,3.4,9.1,7.9,11.7c2.5,1.5,5.4,2.2,8.2,2.2c1.8,0,3.7-0.4,5.4-1.1
	l0.2-0.1l0.2,0.1c1.7,0.7,3.5,1.1,5.4,1.1c2.8,0,5.6-0.8,8.2-2.2C43.3,36,46.3,31.5,46.6,26.9z M19.9,39.3c-0.2,0-0.3,0-0.5,0
	c-2.6,0-5.1-0.7-7.4-2.1c-3.8-2.2-6.4-5.8-7-9.7l-0.1-0.4l0.4-0.1c1.4-0.5,2.8-0.8,4.4-0.8l0.4,0l0.1,0.4c0.4,1.4,1,2.8,1.8,4.1
	c2,3.4,4.9,6.1,8.3,7.6l1.9,0.8L19.9,39.3z M20.5,36.9c-3-1.4-5.6-3.8-7.4-6.8c-2.5-4.3-3-9.4-1.4-13.6l0.1-0.4l0.4,0.1
	c1.9,0.3,3.7,1,5.5,2.1l0.3,0.2L18,18.9c-0.5,1.8-0.8,3.7-0.8,5.5c0,4.3,1.4,8.5,3.9,11.7l1.3,1.6L20.5,36.9z M25.3,37.7L25,38
	l-0.3-0.2c-3.8-3-6-8-6-13.4c0-5.4,2.3-10.4,6-13.4l0.3-0.2l0.3,0.2c3.8,3,6,8,6,13.4C31.4,29.8,29.1,34.8,25.3,37.7z M28.9,36.1
	c2.5-3.2,3.9-7.4,3.9-11.8c0-1.9-0.3-3.7-0.8-5.5l-0.1-0.4l0.3-0.2c1.8-1.1,3.6-1.8,5.5-2.1l0.4-0.1l0.1,0.4
	c1.6,4.2,1.1,9.2-1.4,13.6c-1.7,3-4.4,5.5-7.4,6.8l-1.9,0.9L28.9,36.1z M38,37.3c-2.3,1.3-4.9,2.1-7.4,2.1c-0.1,0-0.3,0-0.4,0
	l-2.3-0.1l2-0.9c3.4-1.5,6.4-4.2,8.3-7.6c0.7-1.3,1.3-2.7,1.8-4.1l0.1-0.4l0.4,0c1.5,0,3,0.3,4.3,0.8l0.4,0.1l-0.1,0.4
	C44.5,31.5,41.8,35.1,38,37.3z"/>
</svg>
