<?xml version="1.0" encoding="utf-8"?>
<!-- Generator: Adobe Illustrator 19.1.0, SVG Export Plug-In . SVG Version: 6.00 Build 0)  -->
<svg version="1.1" id="Layer_1" xmlns="http://www.w3.org/2000/svg" xmlns:xlink="http://www.w3.org/1999/xlink" x="0px" y="0px"
	 width="50px" height="50px" viewBox="0 0 50 50" style="enable-background:new 0 0 50 50;" xml:space="preserve">
<style type="text/css">
	.st0{fill:none;}
</style>

<path class="st0" d="M25.8,13.2V10h-1.6v3.2c0.3,0,0.5,0,0.8,0S25.5,13.2,25.8,13.2z"/>
<path d="M25,24.2c-0.6,0-1.1,0.2-1.6,0.5l-4.2-4.2c-0.3-0.3-0.8-0.3-1.1,0c-0.3,0.3-0.3,0.8,0,1.1l4.2,4.2c-0.3,0.5-0.5,1-0.5,1.6
	c0,1.7,1.4,3.2,3.2,3.2s3.2-1.4,3.2-3.2C28.2,25.6,26.7,24.2,25,24.2z M25,28.9c-0.9,0-1.6-0.7-1.6-1.6c0-0.9,0.7-1.6,1.6-1.6
	s1.6,0.7,1.6,1.6C26.6,28.2,25.9,28.9,25,28.9z"/>
<path d="M35.6,17.9l1.8-1.8c0.3-0.3,0.3-0.8,0-1.1c-0.3-0.3-0.8-0.3-1.1,0l-1.8,1.8c-2-1.8-4.4-3-7.1-3.4V10h1.6
	c0.4,0,0.8-0.4,0.8-0.8s-0.4-0.8-0.8-0.8h-7.9c-0.4,0-0.8,0.4-0.8,0.8s0.4,0.8,0.8,0.8h1.6v3.4c-6.7,1.1-11.8,7-11.8,14
	c0,7.8,6.4,14.2,14.2,14.2s14.2-6.4,14.2-14.2C39.2,23.7,37.8,20.4,35.6,17.9z M24.2,10h1.6v3.2c-0.3,0-0.5,0-0.8,0s-0.5,0-0.8,0V10
	z M25,40c-7,0-12.6-5.7-12.6-12.6c0-7,5.7-12.6,12.6-12.6c7,0,12.6,5.7,12.6,12.6C37.6,34.3,32,40,25,40z"/>
</svg>
