<?xml version="1.0" encoding="utf-8"?>
<!-- Generator: Adobe Illustrator 16.0.0, SVG Export Plug-In . SVG Version: 6.00 Build 0)  -->
<!DOCTYPE svg PUBLIC "-//W3C//DTD SVG 1.1//EN" "http://www.w3.org/Graphics/SVG/1.1/DTD/svg11.dtd">
<svg version="1.1" id="Layer_1" xmlns="http://www.w3.org/2000/svg" xmlns:xlink="http://www.w3.org/1999/xlink" x="0px" y="0px"
	 width="34.872px" height="24.871px" viewBox="0 0 34.872 24.871" enable-background="new 0 0 34.872 24.871" xml:space="preserve">
<path d="M34.205,0.195l0.474,0.475c0.26,0.258,0.26,0.682,0,0.938L11.599,24.676c-0.26,0.26-0.682,0.26-0.94,0l-0.472-0.472
	c-0.26-0.263-0.26-0.685,0-0.94L33.265,0.195C33.521-0.065,33.943-0.065,34.205,0.195z"/>
<path d="M1.607,13.512l9.756,9.752c0.263,0.26,0.263,0.682,0,0.94l-0.471,0.472c-0.26,0.26-0.682,0.26-0.94,0l-9.757-9.753
	c-0.26-0.26-0.26-0.684,0-0.94l0.474-0.471C0.925,13.249,1.347,13.249,1.607,13.512z"/>
</svg>
